ply
format ascii 1.0
comment generated by Dean Mathias  (a = 0.50, b = 0.30901699)
element vertex 14
property float x
property float y
property float z
element face 25
property list unit8 int32 vertex_indices
end_header
 -0.5  0.5 -0.5
 -0.5 -0.5 -0.5
  0.5 -0.5 -0.5
  0.5  0.5 -0.5
 -0.5  0.5  0.5
 -0.5 -0.5  0.5
  0.5 -0.5  0.5
  0.5  0.5  0.5
  0.0  0.0 -0.5
  0.5  0.0  0.0
  0.0  0.0  0.5
 -0.5  0.0  0.0
  0.0  0.5  0.0
  0.0 -0.5  0.0
3 1 0 8
3 2 1 8
3 3 2 8
3 0 3 8
3 2 3 9
3 6 2 9
3 7 6 9
3 3 7 9
3 6 7 10
3 6 7 11
3 5 6 10
3 4 5 10
3 7 4 10
3 5 4 11
3 1 5 11
3 0 1 11
3 4 0 11
3 0 4 12
3 3 0 12
3 7 3 12
3 4 7 12
3 1 2 13
3 5 1 13
3 6 5 13
3 2 6 13
