ply
format ascii 1.0
element vertex 20
property float x
property float y
property float z
element face 36
property list uchar int vertex_indices
end_header
0   1.618   4.236  
0   -1.618   4.236
2.618   2.618   2.618
-2.618   2.618   2.618
-2.618   -2.618   2.618
2.618   -2.618   2.618
4.236   0   1.618
-4.236   0   1.618
1.618    4.236    0
-1.618    4.236    0
-1.618    -4.236    0
1.618    -4.236    0
4.236     0     -1.618
-4.236    0    -1.618
2.618    2.618    -2.618
-2.618    2.618    -2.618
-2.618    -2.618    -2.618
2.618    -2.618    -2.618
0    1.618    -4.236
0    -1.618    -4.236
3 0 1 2 
3 2 1 5 
3 2 5 6 
3 0 3 7 
3 0 7 1 
3 1 7 4 
3 0 2 8 
3 0 8 9 
3 0 9 3 
3 1 4 10 
3 1 10 5 
3 5 10 11 
3 2 6 8 
3 6 14 8 
3 6 12 14 
3 3 9 7 
3 7 9 13 
3 13 9 15 
3 4 7 10 
3 10 7 16 
3 16 7 13 
3 5 11 17 
3 5 17 12 
3 5 12 6 
3 8 14 18 
3 8 18 15 
3 8 15 9 
3 10 16 19 
3 10 19 11 
3 11 19 17 
3 12 17 19 
3 12 19 18 
3 12 18 14 
3 13 15 18 
3 13 18 19 
3 13 19 16